<svg width="15" height="15" viewBox="0 0 15 15" fill="none" xmlns="http://www.w3.org/2000/svg">
<path d="M14.0677 5.74534L7.83456 1.27592C7.63559 1.1369 7.367 1.13535 7.16577 1.27592L0.932673 5.74534C0.303632 6.19636 -0.379654 5.24546 0.250324 4.79373L6.48585 0.32261C6.48722 0.321615 6.4886 0.320649 6.49 0.319654C7.09185 -0.104059 7.90151 -0.109036 8.51041 0.319654C8.51179 0.32062 8.51319 0.321615 8.51457 0.32261L14.75 4.79373C15.3813 5.24636 14.6913 6.1925 14.0677 5.74534Z" fill="#F69220"/>
<path d="M4.10438 13.8176V14.403H2.93341C2.28763 14.403 1.76245 13.8779 1.76245 13.2321V7.9806C1.76245 7.60092 1.94746 7.24348 2.25748 7.02451L6.82687 3.72591C7.23773 3.43744 7.77675 3.44658 8.17347 3.72591L8.9346 4.36203L3.77299 8.19694C3.77124 8.1984 3.76919 8.19987 3.76743 8.20104C3.61169 8.31052 3.5189 8.48968 3.5189 8.67996V13.2321C3.5189 13.555 3.78148 13.8176 4.10438 13.8176Z" fill="#CEE1F2"/>
<path d="M12.0669 14.9885H8.6711C8.34774 14.9885 8.08562 14.7263 8.08562 14.403V12.061C8.08562 11.7382 7.82297 11.4756 7.50014 11.4756C7.17731 11.4756 6.91466 11.7382 6.91466 12.061V14.403C6.91466 14.7263 6.65254 14.9885 6.32918 14.9885H2.93339C1.96488 14.9885 1.17694 14.2005 1.17694 13.232V7.98044C1.17694 7.41089 1.4544 6.87506 1.9193 6.54631L6.48427 3.25098C6.48615 3.24961 6.48805 3.24826 6.48998 3.24691C7.09183 2.82332 7.90134 2.81831 8.5103 3.24691C8.5122 3.24826 8.51411 3.24961 8.51601 3.25098L13.081 6.54634C13.5459 6.87508 13.8234 7.41092 13.8234 7.98047V13.232C13.8233 14.2005 13.0354 14.9885 12.0669 14.9885ZM9.25659 13.8175H12.0669C12.3897 13.8175 12.6524 13.5548 12.6524 13.232V7.98044C12.6524 7.79016 12.5595 7.61118 12.4039 7.50167C12.402 7.50032 12.4001 7.49897 12.3982 7.4976L7.83401 4.20286C7.63492 4.06416 7.36694 4.06308 7.16627 4.20286L2.60212 7.4976C2.60025 7.49894 2.59834 7.50032 2.59641 7.50167C2.44082 7.61118 2.3479 7.79016 2.3479 7.98044V13.232C2.3479 13.5548 2.61055 13.8175 2.93339 13.8175H5.7437V12.061C5.7437 11.0925 6.53164 10.3046 7.50014 10.3046C8.46864 10.3046 9.25659 11.0925 9.25659 12.061V13.8175Z" fill="#0023C4"/>
</svg>
