<svg width="24" height="24" viewBox="0 0 24 24" fill="none" xmlns="http://www.w3.org/2000/svg">
<path opacity="0.3" fill-rule="evenodd" clip-rule="evenodd" d="M2.56068 10.682C1.97489 11.2678 1.97489 12.2175 2.56068 12.8033L4.68201 14.9246C5.2678 15.5104 6.21756 15.5104 6.80335 14.9246L8.92468 12.8033C9.51047 12.2175 9.51047 11.2678 8.92468 10.682L6.80335 8.56071C6.21756 7.97492 5.2678 7.97492 4.68201 8.56071L2.56068 10.682ZM14.5607 10.682C13.9749 11.2678 13.9749 12.2175 14.5607 12.8033L16.682 14.9246C17.2678 15.5104 18.2176 15.5104 18.8033 14.9246L20.9247 12.8033C21.5105 12.2175 21.5105 11.2678 20.9247 10.682L18.8033 8.56071C18.2176 7.97492 17.2678 7.97492 16.682 8.56071L14.5607 10.682Z" fill="#556EE6"/>
<path fill-rule="evenodd" clip-rule="evenodd" d="M8.56068 4.68201C7.97489 5.2678 7.97489 6.21754 8.56068 6.80332L10.682 8.92463C11.2678 9.51041 12.2176 9.51041 12.8033 8.92463L14.9247 6.80332C15.5105 6.21754 15.5105 5.2678 14.9247 4.68201L12.8033 2.56071C12.2176 1.97492 11.2678 1.97492 10.682 2.56071L8.56068 4.68201ZM8.56068 16.682C7.97489 17.2678 7.97489 18.2175 8.56068 18.8033L10.682 20.9246C11.2678 21.5104 12.2176 21.5104 12.8033 20.9246L14.9247 18.8033C15.5105 18.2175 15.5105 17.2678 14.9247 16.682L12.8033 14.5607C12.2176 13.9749 11.2678 13.9749 10.682 14.5607L8.56068 16.682Z" fill="#556EE6"/>
</svg>
